<?xml version="1.0" encoding="utf-8"?>
<svg xmlns="http://www.w3.org/2000/svg" width="848" height="848" class="segno"><g transform="scale(16)"><path fill="#fff" d="M0 0h53v53h-53z"/><path class="qrline" stroke="#0a0e17" d="M4 4.5h7m6 0h1m4 0h4m6 0h4m1 0h1m2 0h1m1 0h7m-45 1h1m5 0h1m3 0h3m1 0h2m1 0h1m1 0h2m1 0h3m2 0h4m1 0h2m1 0h1m2 0h1m5 0h1m-45 1h1m1 0h3m1 0h1m2 0h1m3 0h1m2 0h3m3 0h1m4 0h1m2 0h3m2 0h1m2 0h1m1 0h3m1 0h1m-45 1h1m1 0h3m1 0h1m2 0h1m3 0h3m6 0h1m1 0h2m2 0h1m1 0h2m3 0h2m1 0h1m1 0h3m1 0h1m-45 1h1m1 0h3m1 0h1m1 0h3m3 0h1m1 0h2m1 0h8m4 0h1m1 0h4m1 0h1m1 0h3m1 0h1m-45 1h1m5 0h1m3 0h1m2 0h1m1 0h1m1 0h4m3 0h2m2 0h3m1 0h1m5 0h1m5 0h1m-45 1h7m1 0h1m1 0h1m1 0h1m1 0h1m1 0h1m1 0h1m1 0h1m1 0h1m1 0h1m1 0h1m1 0h1m1 0h1m1 0h1m1 0h1m1 0h1m1 0h7m-37 1h3m2 0h1m3 0h1m1 0h2m3 0h1m1 0h2m3 0h4m1 0h1m-35 1h2m2 0h3m2 0h2m1 0h1m1 0h1m3 0h6m3 0h1m3 0h1m2 0h3m1 0h1m-39 1h2m3 0h1m1 0h1m6 0h4m2 0h1m1 0h1m2 0h5m1 0h1m1 0h3m1 0h3m1 0h2m-45 1h4m1 0h2m1 0h1m1 0h3m3 0h1m6 0h1m2 0h3m1 0h2m2 0h1m4 0h1m2 0h3m-44 1h1m3 0h1m1 0h5m1 0h1m1 0h1m3 0h3m1 0h1m1 0h2m1 0h1m3 0h2m3 0h1m-37 1h1m1 0h1m1 0h2m1 0h1m1 0h1m1 0h2m1 0h2m1 0h1m2 0h1m1 0h1m1 0h1m5 0h1m1 0h2m8 0h1m-44 1h2m1 0h2m2 0h1m3 0h1m3 0h3m1 0h1m2 0h1m1 0h3m1 0h1m3 0h2m3 0h2m1 0h3m-43 1h1m1 0h1m1 0h1m1 0h1m1 0h2m1 0h1m2 0h2m1 0h1m2 0h1m1 0h1m3 0h2m8 0h1m1 0h3m2 0h1m-44 1h1m1 0h1m1 0h1m4 0h1m12 0h1m4 0h1m1 0h1m2 0h1m1 0h1m1 0h1m1 0h5m1 0h1m-45 1h3m1 0h5m2 0h7m5 0h1m5 0h10m3 0h1m1 0h1m-45 1h1m4 0h1m4 0h2m1 0h7m1 0h1m2 0h2m1 0h2m2 0h1m1 0h2m2 0h1m1 0h1m2 0h1m1 0h1m-39 1h1m1 0h1m1 0h1m1 0h1m2 0h4m8 0h1m2 0h2m1 0h6m1 0h4m-44 1h1m2 0h1m1 0h1m1 0h1m1 0h1m2 0h2m8 0h2m1 0h2m1 0h2m3 0h1m1 0h1m1 0h1m1 0h2m2 0h1m-44 1h2m1 0h6m2 0h1m3 0h11m1 0h2m4 0h1m2 0h9m-45 1h1m1 0h1m1 0h1m3 0h3m2 0h1m1 0h1m1 0h2m1 0h1m3 0h1m1 0h3m1 0h1m1 0h1m2 0h2m3 0h2m2 0h1m-42 1h2m1 0h1m1 0h1m1 0h2m1 0h1m2 0h2m1 0h2m1 0h1m1 0h1m2 0h3m2 0h1m1 0h3m1 0h1m1 0h5m-44 1h4m3 0h2m1 0h4m5 0h1m3 0h1m1 0h1m1 0h1m2 0h2m1 0h1m1 0h1m3 0h2m2 0h1m-45 1h12m1 0h2m1 0h10m3 0h3m4 0h5m2 0h2m-42 1h1m4 0h2m2 0h3m1 0h1m1 0h1m2 0h1m1 0h2m1 0h1m1 0h1m1 0h4m3 0h1m1 0h1m1 0h1m-41 1h6m4 0h1m4 0h1m2 0h2m4 0h1m4 0h4m1 0h1m3 0h5m-42 1h2m4 0h1m1 0h2m3 0h1m2 0h1m3 0h1m6 0h1m4 0h2m1 0h1m1 0h1m2 0h2m-44 1h2m2 0h4m2 0h3m4 0h1m2 0h2m1 0h1m1 0h2m1 0h8m1 0h1m1 0h4m-43 1h2m1 0h2m5 0h6m1 0h3m2 0h1m2 0h3m1 0h1m3 0h3m2 0h3m2 0h2m-44 1h2m1 0h4m1 0h1m1 0h3m1 0h3m1 0h1m1 0h2m1 0h3m3 0h5m1 0h2m1 0h1m1 0h1m1 0h1m-44 1h1m2 0h1m1 0h1m2 0h1m1 0h3m1 0h1m2 0h2m5 0h1m1 0h1m2 0h1m3 0h1m2 0h2m1 0h1m1 0h1m-42 1h1m2 0h1m1 0h4m7 0h1m1 0h1m1 0h1m1 0h1m3 0h1m2 0h2m2 0h1m4 0h1m3 0h2m-44 1h1m2 0h1m3 0h2m1 0h2m2 0h2m1 0h5m2 0h3m1 0h2m1 0h1m3 0h4m2 0h2m1 0h1m-41 1h1m1 0h3m1 0h2m1 0h1m2 0h1m2 0h4m1 0h1m1 0h2m2 0h3m1 0h8m1 0h2m-44 1h4m2 0h1m1 0h1m1 0h1m2 0h2m1 0h5m2 0h1m2 0h1m4 0h1m1 0h3m1 0h2m1 0h1m-42 1h1m2 0h2m1 0h4m2 0h2m4 0h7m1 0h1m1 0h1m2 0h1m2 0h1m1 0h6m1 0h1m-36 1h1m1 0h3m1 0h5m1 0h1m3 0h1m2 0h2m1 0h4m1 0h2m3 0h2m-42 1h7m1 0h1m1 0h3m7 0h1m1 0h1m1 0h1m2 0h1m1 0h1m1 0h2m3 0h1m1 0h1m1 0h1m1 0h1m-43 1h1m5 0h1m3 0h4m3 0h1m1 0h2m3 0h3m1 0h1m1 0h3m3 0h1m3 0h3m1 0h1m-45 1h1m1 0h3m1 0h1m2 0h1m6 0h2m1 0h11m1 0h3m1 0h9m-44 1h1m1 0h3m1 0h1m1 0h1m1 0h3m1 0h1m1 0h1m2 0h1m2 0h1m1 0h2m1 0h2m1 0h3m1 0h4m2 0h1m1 0h1m1 0h1m-45 1h1m1 0h3m1 0h1m1 0h2m3 0h2m1 0h1m1 0h2m2 0h1m3 0h1m1 0h1m2 0h1m1 0h2m1 0h3m2 0h2m-43 1h1m5 0h1m4 0h1m1 0h2m3 0h1m6 0h1m1 0h2m4 0h1m1 0h2m1 0h2m4 0h1m-45 1h7m3 0h1m1 0h3m3 0h4m1 0h4m7 0h1m3 0h2m2 0h1"/></g></svg>
